<?xml version="1.0" encoding="iso-8859-1"?>
<!-- Generator: Adobe Illustrator 19.0.0, SVG Export Plug-In . SVG Version: 6.00 Build 0)  -->
<svg version="1.1" id="Capa_1" xmlns="http://www.w3.org/2000/svg" xmlns:xlink="http://www.w3.org/1999/xlink" x="0px" y="0px"
	 viewBox="0 0 512 512" style="enable-background:new 0 0 512 512;" xml:space="preserve">
<g>
	<g>
		<path d="M461.717,81.551l-79.35-79.35c-2.935-2.935-7.693-2.935-10.627,0c-2.935,2.935-2.935,7.693,0,10.627l11.689,11.69
			l-57.388,57.388l-28.694-28.694c-2.935-2.935-7.693-2.935-10.627,0c-2.935,2.935-2.935,7.693,0,10.627l11.69,11.69l-38.792,38.792
			c-2.935,2.935-2.935,7.693,0,10.627c2.935,2.935,7.693,2.935,10.627,0l38.792-38.792l68.723,68.723l-173.859,173.86h-50.455
			l-18.27-18.27v-50.455l111.157-111.157c2.935-2.935,2.935-7.693,0-10.627c-2.935-2.935-7.693-2.935-10.627,0L122.35,251.589
			c-1.41,1.409-2.201,3.32-2.201,5.313v53.567l-31.806,31.807c-2.935,2.935-2.935,7.693,0,10.627l6.022,6.022L71.34,381.952
			c-2.736,2.735-2.918,7.255-0.4,10.196c2.81,3.281,7.97,3.488,11.026,0.431l23.026-23.026l6.022,6.022
			c2.895,2.895,7.732,2.895,10.627,0l31.806-31.806h53.567c1.993,0,3.905-0.792,5.313-2.201l176.062-176.06l11.69,11.69
			c3.057,3.057,8.216,2.851,11.027-0.431c2.519-2.941,2.337-7.461-0.4-10.196l-28.694-28.694l57.388-57.388l11.69,11.69
			c3.057,3.056,8.216,2.851,11.027-0.431C464.636,88.806,464.453,84.287,461.717,81.551z M116.328,359.634l-12.044-12.044
			l23.38-23.38l12.045,12.044L116.328,359.634z M371.385,127.249l-34.716-34.716l57.387-57.388l34.716,34.716L371.385,127.249z"/>
	</g>
</g>
<g>
	<g>
		<path d="M325.686,160.903l-22.671-22.671c-2.935-2.935-7.693-2.935-10.627,0c-2.935,2.935-2.935,7.693,0,10.627l22.671,22.671
			c3.057,3.057,8.216,2.851,11.027-0.431C328.605,168.158,328.423,163.638,325.686,160.903z"/>
	</g>
</g>
<g>
	<g>
		<path d="M291.679,194.909l-22.671-22.671c-2.934-2.935-7.692-2.935-10.627,0c-2.935,2.935-2.935,7.693,0,10.627l22.671,22.671
			c3.057,3.057,8.216,2.851,11.027-0.431C294.598,202.165,294.415,197.645,291.679,194.909z"/>
	</g>
</g>
<g>
	<g>
		<path d="M257.672,228.918L235,206.247c-2.935-2.935-7.693-2.935-10.627,0c-2.935,2.935-2.935,7.693,0,10.627l22.671,22.671
			c1.467,1.468,3.391,2.201,5.313,2.201C258.929,241.746,262.302,233.547,257.672,228.918z"/>
	</g>
</g>
<g>
	<g>
		<path d="M223.901,262.689l-22.671-22.671c-2.935-2.935-7.693-2.935-10.627,0c-2.935,2.935-2.935,7.693,0,10.627l22.671,22.671
			c1.467,1.468,3.391,2.201,5.313,2.201C225.158,275.517,228.531,267.318,223.901,262.689z"/>
	</g>
</g>
<g>
	<g>
		<path d="M190.129,296.46l-22.671-22.671c-2.935-2.935-7.693-2.935-10.627,0c-2.935,2.935-2.935,7.693,0,10.627l22.671,22.671
			c3.056,3.057,8.216,2.851,11.027-0.431C193.047,303.715,192.865,299.195,190.129,296.46z"/>
	</g>
</g>
<g>
	<g>
		<path d="M85.851,428.073c-1.403-2.031-3.714-3.243-6.183-3.243s-4.78,1.212-6.183,3.243c-4.237,6.136-25.379,37.494-25.379,52.365
			c0,17.403,14.159,31.562,31.562,31.562c17.403,0,31.562-14.159,31.562-31.562C111.229,465.567,90.088,434.209,85.851,428.073z
			 M79.668,496.97c-9.116,0-16.532-7.417-16.532-16.532c0-5.475,7.767-20.506,16.533-34.435
			c8.765,13.923,16.531,28.953,16.531,34.435C96.2,489.554,88.784,496.97,79.668,496.97z"/>
	</g>
</g>
<g>
</g>
<g>
</g>
<g>
</g>
<g>
</g>
<g>
</g>
<g>
</g>
<g>
</g>
<g>
</g>
<g>
</g>
<g>
</g>
<g>
</g>
<g>
</g>
<g>
</g>
<g>
</g>
<g>
</g>
</svg>
